<?xml version="1.0" standalone="no"?>
<!DOCTYPE svg PUBLIC "-//W3C//DTD SVG 20010904//EN"
 "http://www.w3.org/TR/2001/REC-SVG-20010904/DTD/svg10.dtd">
<svg version="1.0" xmlns="http://www.w3.org/2000/svg"
 width="700.000000pt" height="383.000000pt" viewBox="0 0 700.000000 383.000000"
 preserveAspectRatio="xMidYMid meet">

<g transform="translate(0.000000,383.000000) scale(0.100000,-0.100000)"
fill="#000000" stroke="none">
<path d="M1310 3645 c-6 -19 -18 -35 -25 -35 -8 0 -33 -22 -56 -50 -41 -49
-97 -90 -123 -90 -8 0 -16 -10 -19 -21 -5 -20 -11 -21 -101 -17 -74 3 -96 1
-96 -9 0 -7 4 -13 9 -13 39 0 56 -81 21 -100 -25 -14 -27 5 -3 32 15 17 15 18
-1 18 -9 0 -19 -7 -22 -15 -11 -29 -23 -15 -18 23 7 62 -83 -228 -117 -373
-11 -49 -27 -103 -35 -120 l-14 -30 7 40 c15 98 135 550 150 567 9 10 11 18 6
18 -24 0 -44 -62 -144 -454 -39 -156 -48 -205 -41 -226 6 -15 6 -44 2 -66 -18
-89 -41 -188 -80 -339 -23 -88 -46 -178 -50 -200 -5 -22 -16 -67 -25 -100 -8
-33 -45 -184 -80 -335 -108 -460 -120 -504 -149 -535 -14 -15 -26 -35 -26 -45
0 -9 -14 -74 -30 -146 -17 -71 -35 -149 -41 -174 -15 -65 -22 -98 -62 -266
-65 -272 -67 -336 -14 -366 28 -16 675 -27 797 -14 47 5 222 8 390 7 168 -2
618 -4 1000 -4 l695 -2 52 -32 c103 -64 285 -107 453 -107 95 0 276 21 302 35
10 5 23 9 28 9 16 0 100 40 129 61 24 17 55 19 431 23 223 2 677 8 1010 12
470 5 611 4 629 -5 16 -9 105 -12 329 -11 327 1 470 13 500 44 26 25 19 120
-17 271 -17 72 -45 184 -61 250 -35 146 -64 274 -85 377 -11 51 -24 85 -40
102 -14 15 -27 37 -30 49 -3 12 -12 51 -20 87 -8 36 -33 139 -55 230 -23 91
-61 251 -86 355 -25 105 -77 316 -115 470 -64 261 -81 358 -66 382 7 10 -38
193 -97 398 -49 172 -44 120 9 -80 30 -114 41 -173 34 -180 -6 -6 -12 -2 -15
13 -4 15 -14 22 -30 22 -13 0 -24 -4 -24 -10 0 -5 -5 -10 -11 -10 -7 0 -6 8 4
23 8 12 22 21 31 19 9 -2 16 1 16 5 0 4 -21 78 -46 163 -25 85 -53 181 -61
212 l-16 57 -76 -6 c-56 -4 -84 -2 -102 8 -24 14 -24 14 16 20 l40 6 -38 2
c-59 2 -103 28 -143 83 -19 27 -38 47 -41 44 -3 -3 -1 -12 5 -19 7 -8 25 -81
42 -163 17 -82 42 -204 56 -272 15 -68 24 -125 21 -128 -7 -7 -54 193 -67 284
-14 103 -49 258 -63 284 -7 13 -23 39 -35 58 -20 30 -22 31 -18 10 36 -171 59
-290 80 -415 15 -82 29 -161 31 -175 l5 -25 -15 25 c-13 23 -14 23 -15 5 0
-11 14 -36 32 -55 58 -65 82 -151 59 -212 -7 -17 -3 -40 11 -79 41 -112 59
-178 84 -314 14 -77 34 -179 45 -226 10 -48 19 -104 19 -126 0 -22 5 -65 11
-96 10 -48 9 -60 -5 -81 -24 -38 -21 -47 34 -96 l51 -45 19 -111 c21 -123 39
-204 75 -339 14 -49 37 -148 53 -218 l30 -129 -32 -19 c-96 -59 -315 -109
-582 -133 -93 -8 -172 -10 -205 -5 -30 4 -117 13 -194 19 -373 30 -472 50
-495 98 l-10 24 -37 -32 c-29 -26 -41 -31 -67 -26 -17 4 -96 9 -176 12 -129 5
-162 3 -295 -21 -160 -28 -236 -51 -354 -109 -83 -40 -81 -40 -81 -26 0 6 6
10 14 10 25 0 28 19 8 45 -16 21 -22 22 -31 11 -9 -11 -9 -15 1 -18 10 -4 9
-9 -4 -21 -15 -16 -17 -15 -23 13 -4 20 -2 37 6 46 10 13 10 17 -2 25 -12 8
-12 10 1 19 12 8 11 10 -6 10 -11 0 -26 -6 -33 -12 -11 -11 -12 -7 -6 22 4 19
13 45 21 57 12 19 12 23 -4 32 -15 10 -15 11 6 17 12 3 22 13 22 21 0 10 -6
12 -20 8 -22 -7 -26 5 -8 23 9 9 9 12 -1 12 -7 0 -36 -18 -63 -40 -28 -22 -56
-40 -62 -39 -7 0 -6 3 2 6 6 2 12 12 12 20 0 11 -7 14 -24 9 l-23 -6 -8 298
c-4 163 -11 340 -15 392 l-7 95 -3 -120 c-2 -66 -4 -124 -5 -130 -1 -5 -5
-136 -10 -290 -5 -154 -11 -267 -13 -252 -2 21 -8 27 -19 23 -8 -3 -21 -6 -29
-6 -10 0 -14 -10 -12 -32 1 -18 -3 -33 -10 -36 -19 -6 -14 -36 9 -61 11 -12
18 -29 15 -37 -6 -16 -32 -19 -40 -5 -4 5 -24 12 -46 16 -27 5 -40 12 -40 22
0 14 -3 13 -20 -2 -25 -22 -25 -37 -2 -58 24 -22 32 -21 32 3 0 25 18 26 27 3
3 -10 17 -33 30 -51 13 -18 23 -40 21 -49 -2 -13 -11 -9 -40 18 -46 43 -72 59
-98 59 -23 0 -26 -19 -7 -39 10 -11 7 -12 -13 -6 -14 4 -41 16 -61 26 -99 49
-393 119 -505 119 -29 0 -43 7 -68 35 -39 42 -50 43 -72 9 -25 -37 -60 -51
-149 -59 -44 -3 -174 -20 -290 -37 -165 -24 -247 -31 -386 -32 -125 -1 -180
-5 -191 -14 -17 -14 -79 -11 -288 14 -125 15 -456 77 -467 87 -3 3 4 34 15 69
11 35 32 130 47 212 14 82 36 178 48 215 21 62 24 66 55 69 40 4 41 23 2 40
-35 16 -36 28 -12 122 14 54 21 66 40 68 26 4 28 14 7 32 -8 7 -13 21 -10 34
3 11 7 39 9 61 3 22 27 153 54 290 27 138 57 291 66 340 10 50 32 153 51 230
18 77 36 160 40 184 12 73 68 181 94 181 19 0 12 17 -15 35 -26 17 -26 19 -19
88 14 147 68 441 92 503 3 8 1 14 -5 14 -6 0 -16 -16 -22 -35z m-121 -207
c-45 -184 -160 -776 -209 -1083 -28 -169 -44 -250 -74 -360 -14 -49 -38 -148
-54 -220 -33 -142 -109 -452 -123 -500 -23 -79 7 162 43 343 11 57 18 106 15
108 -3 3 -13 -20 -23 -51 -10 -31 -20 -53 -22 -47 -5 17 77 407 123 582 24 91
49 191 56 223 7 35 17 57 26 57 9 0 12 12 11 40 -1 21 4 45 10 52 15 19 66
218 92 363 12 66 28 154 36 195 8 41 17 97 20 124 3 27 12 67 20 90 12 37 12
39 -1 22 -13 -17 -15 -17 -15 -4 0 38 57 138 79 138 4 0 0 -33 -10 -72z m4641
50 c13 -32 90 -385 89 -411 0 -21 -1 -21 -8 -2 -5 11 -23 90 -40 175 -18 85
-40 179 -50 207 -17 52 -10 76 9 31z m84 -161 c10 -49 16 -90 14 -93 -2 -2
-15 44 -29 101 -13 58 -20 99 -14 92 6 -6 19 -52 29 -100z m-4675 56 c0 -16
-3 -22 -6 -15 -2 6 -9 10 -14 6 -10 -6 -12 19 -2 29 14 14 23 6 22 -20z m4854
7 c-3 -11 0 -27 7 -35 7 -9 10 -18 7 -22 -4 -3 -9 2 -13 11 -9 23 -27 20 -21
-5 8 -31 -16 -18 -28 15 -8 23 -6 30 10 42 27 20 44 18 38 -6z m-5031 -92
c-11 -46 -28 -120 -38 -166 -25 -121 -28 -93 -4 39 12 63 24 130 27 149 3 19
10 43 15 53 19 38 19 6 0 -75z m4952 -83 c25 -102 32 -144 20 -133 -5 6 -55
183 -70 248 -5 23 -4 24 9 7 8 -10 26 -65 41 -122z m-5019 31 c-9 -31 -19 -56
-22 -56 -8 0 8 103 20 125 19 35 20 -6 2 -69z m5139 8 c10 -37 3 -38 -18 -4
-14 25 -15 30 -3 30 8 0 18 -12 21 -26z m-4924 -46 c0 -4 -7 -5 -15 -2 -8 4
-15 16 -15 27 0 20 0 20 15 1 8 -10 15 -22 15 -26z m4758 -158 c-1 -21 -36
121 -36 145 0 11 8 -14 19 -55 10 -41 18 -82 17 -90z m-5108 123 c0 -5 -5 -15
-10 -23 -8 -12 -10 -11 -10 8 0 12 5 22 10 22 6 0 10 -3 10 -7z m340 -102 c0
-6 -4 -13 -10 -16 -5 -3 -10 1 -10 9 0 9 5 16 10 16 6 0 10 -4 10 -9z m4859
-44 c0 -27 -2 -29 -9 -12 -12 28 -12 57 0 50 6 -3 10 -21 9 -38z m-5150 -148
c-18 -76 -35 -136 -37 -134 -2 2 11 73 29 157 19 84 35 144 37 134 2 -11 -11
-81 -29 -157z m233 144 c-3 -16 -7 -22 -10 -15 -4 13 4 42 11 42 2 0 2 -12 -1
-27z m4835 -15 c-3 -8 -6 -5 -6 6 -1 11 2 17 5 13 3 -3 4 -12 1 -19z m-90 -30
c-3 -8 -6 -5 -6 6 -1 11 2 17 5 13 3 -3 4 -12 1 -19z m-5070 6 c-3 -3 -12 -4
-19 -1 -8 3 -5 6 6 6 11 1 17 -2 13 -5z m5170 -26 c-3 -8 -6 -5 -6 6 -1 11 2
17 5 13 3 -3 4 -12 1 -19z m10 -40 c-3 -8 -6 -5 -6 6 -1 11 2 17 5 13 3 -3 4
-12 1 -19z m-5021 -35 c-14 -96 -98 -531 -122 -624 -13 -52 -33 -140 -44 -195
-68 -334 -72 -351 -172 -749 -39 -154 -79 -314 -89 -355 -17 -64 -50 -183 -65
-229 -2 -8 -7 -12 -9 -9 -3 2 8 51 24 109 70 253 84 306 130 509 27 118 61
276 76 350 15 74 51 234 80 355 30 121 68 292 85 380 17 88 45 225 62 305 17
80 33 157 36 173 8 47 15 29 8 -20z m5284 37 c0 -5 -5 -10 -11 -10 -5 0 -7 5
-4 10 3 6 8 10 11 10 2 0 4 -4 4 -10z m-143 -520 c7 -18 10 -32 18 -80 5 -35
25 -67 25 -39 0 7 -14 79 -30 158 -31 147 -34 168 -25 159 11 -10 208 -918
202 -925 -5 -4 -43 135 -77 285 -16 68 -32 127 -35 131 -8 7 1 -46 20 -134 13
-56 57 -339 70 -448 4 -26 9 -45 13 -43 4 2 7 -17 7 -42 0 -26 3 -67 7 -92 4
-25 -8 14 -26 85 -34 129 -71 268 -119 440 -31 113 -121 574 -114 581 3 3 11
-22 18 -55 6 -34 14 -60 16 -58 5 5 -27 219 -62 412 -39 218 -28 192 31 -75
30 -135 57 -252 61 -260z m-190 398 c-3 -7 -5 -2 -5 12 0 14 2 19 5 13 2 -7 2
-19 0 -25z m50 0 c-3 -7 -5 -2 -5 12 0 14 2 19 5 13 2 -7 2 -19 0 -25z m2
-213 c46 -209 96 -421 147 -620 18 -71 36 -166 38 -210 l5 -80 -21 98 c-14 66
-24 94 -30 85 -6 -8 -7 -4 -3 12 6 26 -1 62 -54 260 -32 122 -121 547 -129
615 -9 80 7 26 47 -160z m41 32 c17 -88 29 -161 26 -165 -3 -3 -6 -1 -6 5 0 5
-13 75 -30 154 -29 138 -35 177 -26 168 2 -2 18 -75 36 -162z m107 131 c-3 -7
-5 -2 -5 12 0 14 2 19 5 13 2 -7 2 -19 0 -25z m-5019 -13 c9 16 11 17 12 4 0
-22 -87 -475 -149 -779 -28 -135 -51 -247 -52 -250 0 -3 -7 11 -15 30 l-14 35
6 -35 c4 -28 3 -32 -6 -20 -9 12 -10 9 -6 -15 4 -17 3 -25 -2 -18 -4 7 -15
-22 -27 -74 -10 -48 -20 -82 -22 -76 -2 6 11 80 30 165 36 157 45 203 123 588
99 490 98 487 104 455 5 -28 6 -29 18 -10z m-241 -27 c-3 -8 -6 -5 -6 6 -1 11
2 17 5 13 3 -3 4 -12 1 -19z m5210 -10 c-3 -8 -6 -5 -6 6 -1 11 2 17 5 13 3
-3 4 -12 1 -19z m10 -40 c-3 -8 -6 -5 -6 6 -1 11 2 17 5 13 3 -3 4 -12 1 -19z
m10 -40 c-3 -8 -6 -5 -6 6 -1 11 2 17 5 13 3 -3 4 -12 1 -19z m73 -48 c0 -5
-4 -10 -10 -10 -5 0 -10 5 -10 10 0 6 5 10 10 10 6 0 10 -4 10 -10z m-3 -72
c-3 -8 -6 -5 -6 6 -1 11 2 17 5 13 3 -3 4 -12 1 -19z m41 -126 c12 -61 34
-154 137 -581 84 -351 105 -460 49 -256 -16 61 -31 99 -36 92 -4 -7 -8 -7 -8
-2 0 16 -85 428 -114 550 -13 61 -27 121 -30 135 -3 14 -12 50 -20 80 -9 30
-16 64 -15 75 0 30 26 -34 37 -93z m179 -144 c-3 -8 -6 -5 -6 6 -1 11 2 17 5
13 3 -3 4 -12 1 -19z m68 -268 c14 -63 29 -124 32 -135 3 -13 2 -16 -4 -10
-11 11 -94 359 -92 385 1 20 32 -96 64 -240z m-378 8 c-3 -7 -5 -2 -5 12 0 14
2 19 5 13 2 -7 2 -19 0 -25z m-5547 -35 c-10 -16 -11 -15 -6 7 3 14 6 32 7 40
1 8 4 5 6 -7 2 -12 -1 -30 -7 -40z m-15 -63 c-9 -41 -17 -33 -9 9 4 17 9 30
11 27 3 -2 2 -19 -2 -36z m5577 -25 c3 -27 1 -32 -9 -23 -14 11 -17 40 -6 51
10 11 11 9 15 -28z m-5595 -47 c-3 -8 -6 -5 -6 6 -1 11 2 17 5 13 3 -3 4 -12
1 -19z m193 -8 c0 -5 -4 -10 -10 -10 -5 0 -10 5 -10 10 0 6 5 10 10 10 6 0 10
-4 10 -10z m-14 -58 c-3 -5 -8 -35 -11 -68 -3 -32 -10 -72 -15 -89 -8 -25 -9
-21 -5 25 4 50 2 52 -11 11 -2 -8 -7 -12 -10 -9 -11 11 28 138 43 138 8 0 12
-4 9 -8z m5507 -117 c4 -34 3 -42 -3 -25 -8 25 -13 87 -6 79 2 -2 6 -26 9 -54z
m145 -15 c0 -9 -3 -7 -8 5 -5 11 -8 29 -8 40 0 16 2 15 8 -5 4 -14 8 -32 8
-40z m-5597 -31 c-6 -16 -10 -18 -10 -7 -1 22 12 55 16 42 2 -6 -1 -22 -6 -35z
m140 -53 c-5 -23 -17 -74 -27 -114 -22 -97 -30 -85 -10 15 37 177 40 189 44
164 2 -13 -1 -42 -7 -65z m-248 34 c-3 -11 -10 -23 -16 -27 -7 -4 -8 0 -4 11
4 10 7 24 7 32 0 9 4 13 9 10 5 -3 7 -15 4 -26z m5574 -22 c-3 -7 -5 -2 -5 12
0 14 2 19 5 13 2 -7 2 -19 0 -25z m-5480 -10 c-3 -8 -6 -5 -6 6 -1 11 2 17 5
13 3 -3 4 -12 1 -19z m110 -30 c-3 -8 -6 -5 -6 6 -1 11 2 17 5 13 3 -3 4 -12
1 -19z m5541 -63 c0 -16 -2 -15 -8 5 -4 14 -8 34 -8 45 0 16 2 15 8 -5 4 -14
8 -34 8 -45z m-5562 -35 c-18 -67 -21 -42 -4 32 7 29 14 46 16 38 1 -9 -4 -40
-12 -70z m-109 28 c-3 -8 -6 -5 -6 6 -1 11 2 17 5 13 3 -3 4 -12 1 -19z m5740
-30 c-3 -7 -5 -2 -5 12 0 14 2 19 5 13 2 -7 2 -19 0 -25z m-60 -10 c-3 -8 -6
-5 -6 6 -1 11 2 17 5 13 3 -3 4 -12 1 -19z m-50 -10 c-3 -8 -6 -5 -6 6 -1 11
2 17 5 13 3 -3 4 -12 1 -19z m120 -30 c-3 -7 -5 -2 -5 12 0 14 2 19 5 13 2 -7
2 -19 0 -25z m-37 -70 c29 -125 33 -147 21 -128 -8 14 -51 191 -51 211 0 27
10 -1 30 -83z m47 30 c-3 -8 -6 -5 -6 6 -1 11 2 17 5 13 3 -3 4 -12 1 -19z
m-5640 -10 c-3 -8 -6 -5 -6 6 -1 11 2 17 5 13 3 -3 4 -12 1 -19z m5530 0 c-3
-8 -6 -5 -6 6 -1 11 2 17 5 13 3 -3 4 -12 1 -19z m-9 -73 c0 -16 -2 -15 -8 5
-4 14 -8 34 -8 45 0 16 2 15 8 -5 4 -14 8 -34 8 -45z m129 33 c-3 -7 -5 -2 -5
12 0 14 2 19 5 13 2 -7 2 -19 0 -25z m-100 -45 c-3 -10 -5 -4 -5 12 0 17 2 24
5 18 2 -7 2 -21 0 -30z m110 5 c-3 -8 -6 -5 -6 6 -1 11 2 17 5 13 3 -3 4 -12
1 -19z m-6130 -41 c15 -30 15 -31 -1 -18 -9 8 -18 12 -20 10 -1 -2 -12 -49
-24 -104 -12 -55 -33 -147 -47 -205 -14 -58 -35 -152 -45 -210 -11 -58 -25
-134 -33 -170 l-14 -65 24 -3 c13 -2 37 4 55 12 31 16 31 16 13 -3 -9 -11 -44
-36 -76 -55 l-59 -35 0 32 c0 39 24 145 151 692 37 158 40 166 50 160 5 -4 17
-21 26 -38z m6352 -49 c12 -51 36 -154 52 -228 17 -74 51 -216 74 -315 48
-196 61 -265 51 -265 -3 0 -41 28 -83 63 -64 53 -73 62 -53 65 16 3 21 9 17
23 -3 10 -1 19 4 19 5 0 9 12 9 28 1 24 2 23 15 -13 8 -22 15 -48 15 -57 0
-20 19 -72 24 -67 2 2 0 29 -6 59 -18 102 -60 314 -85 435 -14 66 -29 145 -34
175 -10 72 -28 130 -39 130 -5 0 -14 -8 -19 -17 -8 -15 -10 -15 -11 -3 0 18
27 60 40 60 4 0 18 -42 29 -92z m-352 40 c-3 -7 -5 -2 -5 12 0 14 2 19 5 13 2
-7 2 -19 0 -25z m140 -15 c-3 -10 -5 -4 -5 12 0 17 2 24 5 18 2 -7 2 -21 0
-30z m-72 -142 c-5 -4 -7 2 -24 72 -6 26 -11 55 -10 65 1 9 10 -17 20 -58 10
-41 16 -76 14 -79z m-5910 72 c-10 -70 -25 -123 -34 -123 -5 0 -3 26 5 58 8
31 17 69 20 85 10 44 16 31 9 -20z m5954 -33 c0 -9 -4 -8 -9 5 -5 11 -9 27 -9
35 0 9 4 8 9 -5 5 -11 9 -27 9 -35z m-72 -52 c-3 -8 -6 -5 -6 6 -1 11 2 17 5
13 3 -3 4 -12 1 -19z m-6047 -26 c0 -15 -2 -15 -10 -2 -13 20 -13 33 0 25 6
-3 10 -14 10 -23z m6335 19 c6 -11 -33 -26 -43 -16 -4 3 0 10 8 15 19 12 27
12 35 1z m-248 -23 c-3 -8 -6 -5 -6 6 -1 11 2 17 5 13 3 -3 4 -12 1 -19z
m-2733 -5 c9 -23 -9 -39 -27 -25 -8 7 -17 9 -20 5 -4 -3 -7 -1 -7 5 0 10 27
31 41 32 4 0 10 -8 13 -17z m-3107 -25 c-3 -8 -6 -5 -6 6 -1 11 2 17 5 13 3
-3 4 -12 1 -19z m5950 -10 c-3 -8 -6 -5 -6 6 -1 11 2 17 5 13 3 -3 4 -12 1
-19z m-6071 -14 c-4 -9 -9 -15 -11 -12 -3 3 -3 13 1 22 4 9 9 15 11 12 3 -3 3
-13 -1 -22z m6026 1 c3 -13 1 -22 -3 -19 -9 5 -13 44 -5 44 2 0 6 -11 8 -25z
m198 -5 c4 -25 0 -40 -8 -40 -4 0 -8 16 -9 36 -1 34 13 37 17 4z m-6340 -15
c0 -30 -38 -55 -51 -34 -14 22 -10 37 13 53 26 19 38 13 38 -19z m97 -57 c-3
-8 -6 -5 -6 6 -1 11 2 17 5 13 3 -3 4 -12 1 -19z m6273 -43 c0 -24 -6 -38 -20
-45 -23 -13 -26 -5 -5 16 8 8 11 22 8 30 -4 11 -8 12 -13 4 -5 -8 -9 -7 -13 4
-6 16 21 39 35 30 5 -3 8 -21 8 -39z m-241 -40 c7 -33 15 -69 17 -80 4 -16 3
-17 -4 -5 -6 8 -15 42 -22 75 -7 33 -15 66 -18 75 -3 10 -2 12 5 5 5 -5 15
-37 22 -70z m-6042 33 c-3 -7 -5 -2 -5 12 0 14 2 19 5 13 2 -7 2 -19 0 -25z
m1809 25 c-10 -11 -206 -41 -206 -32 0 7 99 26 170 33 19 1 37 4 39 4 2 1 1
-1 -3 -5z m-1936 -55 c0 -11 -7 -18 -20 -18 -21 0 -26 22 -13 56 6 16 7 16 20
-2 7 -10 13 -26 13 -36z m297 0 c-3 -8 -6 -5 -6 6 -1 11 2 17 5 13 3 -3 4 -12
1 -19z m5970 0 c-3 -8 -6 -5 -6 6 -1 11 2 17 5 13 3 -3 4 -12 1 -19z m-2532
-8 c-11 -5 -27 -9 -35 -9 -13 -1 -13 0 0 9 8 5 24 9 35 9 l20 0 -20 -9z
m-3626 -59 c-12 -59 -25 -70 -15 -13 9 50 17 74 22 69 2 -2 -1 -27 -7 -56z
m2902 32 c13 -15 12 -15 -8 -4 -24 12 -29 21 -14 21 5 0 15 -7 22 -17z m3405
-24 c9 -15 -23 -10 -35 5 -10 12 -8 13 9 9 11 -3 23 -9 26 -14z m-4346 -28 c0
-5 -9 -7 -20 -4 -11 3 -20 7 -20 9 0 2 9 4 20 4 11 0 20 -4 20 -9z m2356 -21
c71 -6 162 -12 201 -13 40 -2 76 -7 80 -11 5 -5 -39 -6 -97 -2 -58 3 -169 9
-247 13 -79 3 -143 10 -143 14 0 12 48 11 206 -1z m739 0 l60 -7 -50 0 c-27
-1 -77 3 -110 7 l-60 7 50 0 c28 1 77 -3 110 -7z m-5238 -104 c-8 -22 -18 -58
-22 -78 -3 -21 -11 -38 -16 -38 -11 0 -11 0 22 118 14 48 25 73 27 61 2 -12
-3 -40 -11 -63z m160 62 c-3 -8 -6 -5 -6 6 -1 11 2 17 5 13 3 -3 4 -12 1 -19z
m4733 12 c0 -5 -21 -9 -47 -8 l-48 1 45 7 c25 4 46 8 48 8 1 1 2 -2 2 -8z m55
-10 c3 -5 -1 -10 -9 -10 -9 0 -16 5 -16 10 0 6 4 10 9 10 6 0 13 -4 16 -10z
m1586 -240 c29 -22 58 -41 64 -43 29 -11 -18 -21 -137 -28 -170 -10 -363 -11
-354 -2 6 7 278 31 364 32 38 1 41 17 11 55 -29 37 -9 32 52 -14z m-6483 18
c5 -7 11 -22 13 -33 6 -28 43 -33 278 -35 113 -1 224 -5 246 -10 25 -5 -74 -8
-256 -9 -283 -1 -420 5 -419 18 1 6 110 79 121 80 4 1 11 -5 17 -11z m6005
-87 c9 0 17 -5 17 -11 0 -6 -43 -10 -109 -10 -106 0 -109 -1 -126 -26 -9 -14
-19 -23 -22 -21 -2 3 3 17 12 31 9 14 15 29 12 33 -4 7 149 10 216 4z m-4336
-7 c-3 -3 -12 -4 -19 -1 -8 3 -5 6 6 6 11 1 17 -2 13 -5z m136 -1 c-13 -2 -35
-2 -50 0 -16 2 -5 4 22 4 28 0 40 -2 28 -4z m64 1 c-3 -3 -12 -4 -19 -1 -8 3
-5 6 6 6 11 1 17 -2 13 -5z m1433 -154 c-14 -4 -43 -8 -65 -8 -22 0 -51 4 -65
8 -16 5 6 8 65 8 59 0 81 -3 65 -8z"/>
<path d="M6181 2134 c0 -11 3 -14 6 -6 3 7 2 16 -1 19 -3 4 -6 -2 -5 -13z"/>
<path d="M1080 2688 c0 -19 2 -20 10 -8 13 19 13 30 0 30 -5 0 -10 -10 -10
-22z"/>
<path d="M1072 2630 c0 -14 2 -19 5 -12 2 6 2 18 0 25 -3 6 -5 1 -5 -13z"/>
<path d="M1057 2558 c-4 -31 -2 -46 7 -37 10 11 17 69 8 69 -5 0 -12 -15 -15
-32z"/>
<path d="M1940 3645 c7 -8 17 -11 24 -7 6 4 43 10 81 13 l70 6 -94 1 c-82 2
-92 0 -81 -13z"/>
<path d="M3840 3648 c-14 -5 -47 -20 -75 -31 -40 -17 -144 -81 -230 -142 -10
-7 -22 -2 -42 16 -57 53 -174 129 -230 150 -39 15 -26 3 52 -46 41 -25 100
-69 130 -97 49 -45 55 -54 55 -90 0 -24 -6 -45 -15 -52 -17 -13 -19 -47 -9
-131 5 -41 9 -53 14 -40 5 12 10 -15 15 -70 12 -138 20 -142 34 -20 7 61 16
114 21 120 5 6 14 41 21 78 10 54 10 71 -1 91 -8 16 -10 34 -5 53 5 15 7 33 6
40 -3 18 112 92 213 135 50 22 93 42 95 44 8 8 -24 3 -49 -8z"/>
<path d="M4975 3650 c19 -8 83 -14 74 -6 -2 2 -24 6 -49 9 -30 4 -38 3 -25 -3z"/>
<path d="M5068 3643 c6 -2 18 -2 25 0 6 3 1 5 -13 5 -14 0 -19 -2 -12 -5z"/>
<path d="M5297 3643 c18 -2 50 -2 70 0 21 2 7 4 -32 4 -38 0 -55 -2 -38 -4z"/>
<path d="M988 3463 c6 -2 18 -2 25 0 6 3 1 5 -13 5 -14 0 -19 -2 -12 -5z"/>
<path d="M1043 3463 c9 -2 23 -2 30 0 6 3 -1 5 -18 5 -16 0 -22 -2 -12 -5z"/>
<path d="M1290 3035 c-10 -12 -10 -15 3 -15 19 0 31 16 18 24 -5 3 -14 -1 -21
-9z"/>
<path d="M2000 3008 c-24 -13 -46 -28 -48 -35 -2 -8 8 -6 30 5 48 24 134 21
181 -6 48 -28 105 -80 112 -102 8 -25 -23 -408 -35 -430 -6 -10 -19 -22 -30
-25 -41 -13 -17 -21 65 -23 81 -1 109 9 65 23 -35 11 -38 34 -29 185 4 80 8
165 8 190 1 44 1 44 20 25 10 -11 36 -43 57 -71 34 -45 195 -240 275 -332 16
-18 33 -31 38 -28 5 3 12 106 15 228 8 262 10 276 42 290 13 6 24 15 24 20 0
12 -148 10 -155 -2 -3 -5 -2 -10 4 -10 5 0 17 -7 25 -16 13 -13 16 -45 16
-190 0 -96 -3 -174 -7 -173 -5 0 -71 77 -148 171 -153 186 -241 274 -301 303
-23 12 -67 21 -109 23 -58 3 -78 -1 -115 -20z"/>
<path d="M2860 2922 c0 -5 11 -14 25 -20 l25 -12 0 -177 c0 -193 9 -232 61
-280 81 -74 244 -69 316 8 45 49 53 88 53 259 0 161 7 200 35 200 8 0 15 7 15
15 0 12 -14 15 -70 15 -38 0 -70 -3 -70 -6 0 -4 11 -17 25 -30 25 -23 25 -26
25 -172 0 -246 -26 -292 -162 -292 -61 0 -71 3 -101 30 -46 40 -57 89 -57 243
0 155 6 186 36 198 49 18 24 29 -66 29 -49 0 -90 -4 -90 -8z"/>
<path d="M3466 2921 c-3 -5 5 -12 18 -15 14 -3 27 -15 31 -26 3 -11 7 -114 8
-230 l2 -210 -30 -25 -30 -24 187 -1 187 0 16 52 c18 61 12 72 -18 35 -33 -40
-88 -59 -150 -51 -87 11 -87 11 -87 124 l0 100 79 0 c70 0 80 -2 94 -22 15
-22 16 -20 16 46 l1 69 -25 -27 c-23 -25 -30 -27 -92 -24 l-68 3 0 95 0 95 88
3 87 3 18 -31 c9 -16 20 -30 23 -30 8 0 17 89 10 96 -9 8 -360 4 -365 -5z"/>
<path d="M3894 2921 c-2 -3 8 -15 23 -27 20 -15 60 -93 138 -265 60 -133 116
-244 123 -247 14 -4 15 -2 133 288 47 115 94 214 106 226 13 12 23 24 23 27 0
5 -134 3 -150 -2 -3 -1 7 -9 23 -17 15 -8 27 -21 27 -29 0 -26 -144 -375 -151
-368 -4 5 -26 53 -48 108 -22 55 -56 136 -75 179 -32 74 -36 106 -15 106 5 0
9 6 9 14 0 10 -19 13 -81 12 -44 -1 -83 -3 -85 -5z"/>
<path d="M4576 2922 c-3 -6 5 -17 18 -26 l25 -16 -29 -77 c-120 -324 -131
-349 -173 -385 l-32 -27 78 0 c71 0 99 11 62 25 -8 4 -15 17 -15 29 0 28 40
137 54 147 13 9 178 -2 189 -12 11 -10 57 -136 57 -155 0 -8 -7 -15 -15 -15
-8 0 -15 -4 -15 -10 0 -6 37 -10 90 -10 91 0 110 8 66 28 -26 12 -53 64 -184
357 l-67 150 -52 3 c-28 2 -54 -1 -57 -6z m118 -202 c20 -46 33 -87 28 -90 -4
-3 -39 -4 -79 -2 l-72 4 30 81 c16 45 32 88 35 96 7 22 19 4 58 -89z"/>
<path d="M3522 2260 c0 -19 2 -27 5 -17 2 9 2 25 0 35 -3 9 -5 1 -5 -18z"/>
<path d="M1938 2113 c-88 -4 -106 -13 -68 -33 17 -9 20 -21 20 -83 0 -40 -7
-144 -15 -232 -13 -149 -16 -162 -39 -181 l-24 -21 96 -6 c95 -5 142 5 88 19
-41 10 -48 34 -40 139 4 52 8 95 9 95 1 0 16 -5 33 -11 41 -14 137 4 179 34
80 57 105 142 61 207 -44 66 -108 82 -300 73z m170 -44 c60 -21 84 -93 54
-162 -25 -56 -70 -79 -145 -75 l-52 3 4 100 c5 135 9 145 64 145 24 0 58 -5
75 -11z"/>
<path d="M3429 2115 c0 0 -2 -26 -4 -57 -4 -57 7 -78 20 -38 12 37 48 51 117
48 l63 -3 3 -215 c1 -118 0 -225 -3 -238 -3 -12 -17 -28 -30 -34 -14 -6 -25
-14 -25 -17 0 -3 47 -6 105 -7 58 0 105 2 105 6 0 3 -15 13 -32 21 l-33 14 -3
238 -2 237 73 0 c59 0 77 -4 90 -18 10 -10 17 -24 17 -30 0 -6 5 -14 10 -17 6
-4 10 15 10 49 l0 55 -240 3 c-132 2 -240 3 -241 3z"/>
<path d="M2460 2102 c0 -5 10 -16 21 -24 21 -14 21 -15 -46 -173 -91 -216
-130 -290 -165 -317 -16 -12 -30 -24 -30 -27 0 -5 150 -6 170 -1 3 0 -7 8 -22
16 -34 18 -34 22 1 109 l29 70 103 0 104 0 22 -60 c29 -79 29 -109 1 -122 -18
-8 0 -11 77 -16 93 -5 130 -1 96 11 -32 11 -59 52 -94 142 -20 52 -63 163 -95
245 l-57 150 -58 3 c-31 2 -57 -1 -57 -6z m108 -196 c18 -48 32 -94 32 -102 0
-11 -17 -14 -74 -14 -42 0 -78 5 -81 10 -8 14 76 213 85 203 4 -4 21 -48 38
-97z"/>
<path d="M2895 2100 c-3 -5 -1 -10 4 -10 6 0 20 -9 31 -20 19 -19 19 -30 14
-227 -3 -115 -7 -217 -9 -229 -3 -11 -16 -26 -30 -34 -14 -7 -25 -16 -25 -19
0 -3 45 -6 100 -6 55 0 100 2 100 5 0 3 -14 13 -30 22 l-30 17 0 111 0 110 29
0 c40 0 71 -28 135 -123 71 -104 113 -139 177 -145 33 -3 49 -1 49 7 0 6 -4
11 -9 11 -22 0 -76 59 -132 141 -32 48 -63 90 -69 94 -18 11 -11 23 25 45 103
64 90 199 -22 246 -39 17 -298 20 -308 4z m275 -49 c14 -10 31 -29 38 -42 16
-31 9 -95 -14 -120 -23 -25 -79 -41 -129 -37 l-40 3 -3 104 c-2 77 1 107 10
113 20 13 110 0 138 -21z"/>
<path d="M3990 2101 c0 -5 11 -16 25 -25 l25 -16 0 -230 c0 -194 -2 -231 -16
-244 -8 -9 -20 -16 -25 -16 -5 0 -9 -3 -9 -7 0 -5 43 -8 95 -8 52 -1 95 1 95
4 0 3 -11 14 -25 26 -25 20 -25 21 -32 246 l-6 227 26 17 c15 9 27 21 27 26 0
5 -40 9 -90 9 -49 0 -90 -4 -90 -9z"/>
<path d="M4280 2105 c0 -4 10 -15 21 -24 21 -16 22 -28 27 -247 l5 -231 -27
-24 -27 -25 183 1 c162 1 188 3 228 21 208 95 212 394 6 502 -49 25 -59 27
-233 30 -101 2 -183 1 -183 -3z m349 -55 c66 -29 106 -75 127 -147 32 -109 0
-225 -76 -278 -39 -27 -52 -30 -134 -33 -138 -5 -130 -19 -134 248 -3 179 -1
224 10 232 22 15 151 2 207 -22z"/>
<path d="M5060 2100 c0 -5 6 -10 14 -10 7 0 19 -7 26 -15 10 -12 -1 -50 -55
-202 -90 -251 -102 -278 -131 -291 -13 -7 -24 -15 -24 -19 0 -10 146 -10 156
0 4 4 2 7 -4 7 -6 0 -18 7 -27 16 -17 17 -16 25 17 117 l21 58 106 -3 106 -3
32 -80 c32 -79 32 -80 13 -97 -11 -9 -20 -18 -20 -20 0 -1 43 -3 95 -3 96 0
116 7 69 25 -26 10 -28 13 -212 403 l-61 127 -60 0 c-34 0 -61 -4 -61 -10z
m133 -191 c26 -55 45 -105 42 -110 -5 -8 -155 -2 -164 6 -5 5 63 205 70 205 3
0 27 -45 52 -101z"/>
<path d="M1042 1313 c-12 -15 -19 -29 -15 -32 3 -3 8 0 10 7 3 6 13 12 22 12
23 0 31 9 24 26 -8 20 -17 17 -41 -13z"/>
<path d="M1100 1320 c0 -11 5 -20 10 -20 6 0 10 9 10 20 0 11 -4 20 -10 20 -5
0 -10 -9 -10 -20z"/>
<path d="M1130 1273 c0 -14 19 -38 25 -32 8 8 -5 39 -16 39 -5 0 -9 -3 -9 -7z"/>
<path d="M1260 1182 c0 -19 27 -38 39 -27 7 8 -12 38 -27 43 -7 2 -12 -5 -12
-16z"/>
<path d="M1310 1110 c0 -5 5 -10 11 -10 5 0 7 5 4 10 -3 6 -8 10 -11 10 -2 0
-4 -4 -4 -10z"/>
<path d="M1267 1104 c-3 -4 -2 -14 3 -23 4 -9 8 -25 7 -35 -1 -11 3 -21 9 -23
8 -3 9 8 4 37 -8 44 -13 54 -23 44z"/>
<path d="M6242 1055 c0 -22 6 -56 14 -75 l14 -35 -6 35 c-4 19 -10 53 -14 75
l-7 40 -1 -40z"/>
<path d="M1110 1009 c0 -5 5 -7 10 -4 6 3 10 8 10 11 0 2 -4 4 -10 4 -5 0 -10
-5 -10 -11z"/>
<path d="M1330 1000 c0 -5 5 -10 10 -10 6 0 10 5 10 10 0 6 -4 10 -10 10 -5 0
-10 -4 -10 -10z"/>
<path d="M1370 990 c0 -5 5 -10 11 -10 5 0 7 5 4 10 -3 6 -8 10 -11 10 -2 0
-4 -4 -4 -10z"/>
<path d="M1410 961 c0 -6 5 -13 10 -16 6 -3 10 1 10 9 0 9 -4 16 -10 16 -5 0
-10 -4 -10 -9z"/>
<path d="M3262 899 c2 -6 8 -10 13 -10 5 0 11 4 13 10 2 6 -4 11 -13 11 -9 0
-15 -5 -13 -11z"/>
<path d="M3720 894 c0 -9 7 -14 17 -12 25 5 28 28 4 28 -12 0 -21 -6 -21 -16z"/>
</g>
</svg>
